<?xml version="1.0" encoding="UTF-8"?>
<svg id="Layer_2" data-name="Layer 2" xmlns="http://www.w3.org/2000/svg" viewBox="0 0 2546.71 583.25">
  <defs>
    <style>
      .cls-1 {
        fill: #0524dd;
      }
    </style>
  </defs>
  <g id="Layer_2-2" data-name="Layer 2">
    <g>
      <path class="cls-1" d="M880.38,372.42v86.97h-309.71v-25.25l162.15-258.09h-138.02v-86.97h285.02v25.25l-162.71,258.09h163.27Z"/>
      <path class="cls-1" d="M1175.5,296.67v162.71h-88.09v-23c-19.64,18.52-47.13,29.74-80.79,29.74-63.4,0-96.5-40.4-96.5-86.97,0-52.74,42.64-83.6,109.97-83.6h58.91v-4.49c0-20.2-12.34-35.91-42.64-35.91-26.93,0-46.01,12.9-70.13,34.23l-44.89-61.16c36.47-37.03,74.62-56.11,126.8-56.11,76.3,0,127.36,41.52,127.36,124.56ZM1078.99,356.71v-2.24h-45.45c-16.27,0-25.81,7.85-25.81,21.32s10.1,21.88,28.61,21.88c24.13,0,42.64-15.15,42.64-40.96Z"/>
      <path class="cls-1" d="M1241.7,89.08h96.5v283.34h153.17v86.97h-249.67V89.08Z"/>
      <path class="cls-1" d="M1787.04,296.67v162.71h-88.09v-23c-19.64,18.52-47.13,29.74-80.79,29.74-63.4,0-96.5-40.4-96.5-86.97,0-52.74,42.64-83.6,109.97-83.6h58.91v-4.49c0-20.2-12.34-35.91-42.64-35.91-26.93,0-46.01,12.9-70.13,34.23l-44.89-61.16c36.47-37.03,74.62-56.11,126.8-56.11,76.31,0,127.36,41.52,127.36,124.56ZM1690.54,356.71v-2.24h-45.45c-16.27,0-25.81,7.85-25.81,21.32s10.1,21.88,28.61,21.88c24.13,0,42.64-15.15,42.64-40.96Z"/>
      <path class="cls-1" d="M2230.28,82.35v377.04h-96.5v-155.42l-76.87,89.77h-30.86l-76.3-89.21v154.85h-96.5V82.35h30.86l157.66,192.45,157.66-192.45h30.86Z"/>
      <path class="cls-1" d="M2546.71,296.67v162.71h-88.09v-23c-19.64,18.52-47.13,29.74-80.79,29.74-63.4,0-96.5-40.4-96.5-86.97,0-52.74,42.64-83.6,109.97-83.6h58.91v-4.49c0-20.2-12.34-35.91-42.64-35.91-26.93,0-46.01,12.9-70.13,34.23l-44.89-61.16c36.47-37.03,74.62-56.11,126.8-56.11,76.31,0,127.36,41.52,127.36,124.56ZM2450.21,356.71v-2.24h-45.45c-16.27,0-25.81,7.85-25.81,21.32s10.1,21.88,28.61,21.88c24.13,0,42.64-15.15,42.64-40.96Z"/>
    </g>
    <g>
      <path class="cls-1" d="M192.53,7.29c5.25-13.48,40.42-4.53,51.18-2.47,48.54,11.16,93.53,36.55,128.22,72.31,124.71,128.2,66.55,328.49-25.64,462.03-6.12,8.38-16.48,19.08-26.24,19.02-17.11-.35-27.43-19.67-37.17-32.26-7.74-10.77-16.1-21.23-24.88-31.03-131.6-143.97,24.88-172.93,48.38-318.92,3.5-30.23-7.14-58.61-23.41-83.43-18.31-27.95-43.85-51.17-72.56-68.23-6.01-4.2-18.23-8.57-17.92-16.82l.04-.21Z"/>
      <path class="cls-1" d="M230.74,554.75c-7.04-16.88-20.24-30.22-31.68-44.32-23.04-27.01-45.39-56.78-52.46-92.37-12.02-49.31,15.15-93.15,41.95-133.36,15.9-25.55,32.14-50.02,43.6-77.77,23.08-55.26-7.73-113.75-47.69-152.35-8.6-8.58-17.41-16.85-26.73-24.69-13.52-11.45-28.64-19.22-39.25,1.13-5.55,10.72-8.62,21.96-12.87,33.04C68.41,166.73-13.94,262.16,2.03,375.72c7.08,49.82,34.5,94.27,69.85,129.64,32.72,32.4,72.77,58.78,115.82,73.66,20.49,7.59,54.58,7.84,43.17-23.95l-.12-.32Z"/>
    </g>
  </g>
</svg>