<?xml version="1.0" encoding="UTF-8"?>
<svg id="Layer_2" data-name="Layer 2" xmlns="http://www.w3.org/2000/svg" viewBox="0 0 2575.88 595.84">
  <defs>
    <style>
      .cls-1 {
        letter-spacing: 0em;
      }

      .cls-2 {
        font-family: FONTSPRINGDEMO-CeraProBlackRegular, 'FONTSPRING DEMO - Cera Pro Black';
        font-size: 561.06px;
        font-style: oblique;
      }

      .cls-2, .cls-3 {
        fill: #0524dd;
      }

      .cls-4 {
        letter-spacing: 0em;
      }
    </style>
  </defs>
  <g id="Layer_2-2" data-name="Layer 2">
    <g>
      <text class="cls-2" transform="translate(563.94 465.68)"><tspan x="0" y="0">ZaLa</tspan><tspan class="cls-1" x="1252.27" y="0">M</tspan><tspan class="cls-4" x="1700.55" y="0">a</tspan></text>
      <g>
        <path class="cls-3" d="M192.53,13.59c5.25-13.48,40.42-4.53,51.18-2.47,48.54,11.16,93.53,36.55,128.22,72.31,124.71,128.2,66.55,328.49-25.64,462.03-6.12,8.38-16.48,19.08-26.24,19.02-17.11-.35-27.43-19.67-37.17-32.26-7.74-10.77-16.1-21.23-24.88-31.03-131.6-143.97,24.88-172.93,48.38-318.92,3.5-30.23-7.14-58.61-23.41-83.43-18.31-27.95-43.85-51.17-72.56-68.23-6.01-4.2-18.23-8.57-17.92-16.82l.04-.21Z"/>
        <path class="cls-3" d="M230.74,561.05c-7.04-16.88-20.24-30.22-31.68-44.32-23.04-27.01-45.39-56.78-52.46-92.37-12.02-49.31,15.15-93.15,41.95-133.36,15.9-25.55,32.14-50.02,43.6-77.77,23.08-55.26-7.73-113.75-47.69-152.35-8.6-8.58-17.41-16.85-26.73-24.69-13.52-11.45-28.64-19.22-39.25,1.13-5.55,10.72-8.62,21.96-12.87,33.04C68.41,173.04-13.94,268.46,2.03,382.02c7.08,49.82,34.5,94.27,69.85,129.64,32.72,32.4,72.77,58.78,115.82,73.66,20.49,7.59,54.58,7.84,43.17-23.95l-.12-.32Z"/>
      </g>
    </g>
  </g>
</svg>